<mxfile host="app.diagrams.net" modified="2024-03-10T09:18:49.826Z" agent="Mozilla/5.0 (Windows NT 10.0; Win64; x64) AppleWebKit/537.36 (KHTML, like Gecko) Chrome/122.0.0.0 Safari/537.36" etag="v-mFJbxN7ZW9STSFqXIt" version="24.0.4" type="github">
  <diagram name="Page-1" id="9361dd3d-8414-5efd-6122-117bd74ce7a7">
    <mxGraphModel dx="1221" dy="759" grid="1" gridSize="10" guides="1" tooltips="1" connect="1" arrows="1" fold="1" page="0" pageScale="1.5" pageWidth="826" pageHeight="1169" background="none" math="0" shadow="0">
      <root>
        <mxCell id="0" />
        <mxCell id="1" parent="0" />
        <mxCell id="a7gMy1F5R241Crjmzm0x-98" value="login/logout" style="edgeStyle=orthogonalEdgeStyle;rounded=0;orthogonalLoop=1;jettySize=auto;html=1;curved=0;" edge="1" parent="1" source="a7gMy1F5R241Crjmzm0x-90" target="a7gMy1F5R241Crjmzm0x-91">
          <mxGeometry x="-0.0474" y="90" relative="1" as="geometry">
            <Array as="points">
              <mxPoint x="300" y="190" />
              <mxPoint x="300" y="190" />
            </Array>
            <mxPoint x="1" as="offset" />
          </mxGeometry>
        </mxCell>
        <mxCell id="a7gMy1F5R241Crjmzm0x-116" value="workflow" style="edgeLabel;html=1;align=center;verticalAlign=middle;resizable=0;points=[];" vertex="1" connectable="0" parent="a7gMy1F5R241Crjmzm0x-98">
          <mxGeometry x="-0.1351" relative="1" as="geometry">
            <mxPoint as="offset" />
          </mxGeometry>
        </mxCell>
        <mxCell id="a7gMy1F5R241Crjmzm0x-90" value="dapp" style="shape=umlLifeline;perimeter=lifelinePerimeter;whiteSpace=wrap;html=1;container=1;dropTarget=0;collapsible=0;recursiveResize=0;outlineConnect=0;portConstraint=eastwest;newEdgeStyle={&quot;curved&quot;:0,&quot;rounded&quot;:0};" vertex="1" parent="1">
          <mxGeometry x="180" y="10" width="100" height="810" as="geometry" />
        </mxCell>
        <mxCell id="a7gMy1F5R241Crjmzm0x-113" value="" style="html=1;points=[[0,0,0,0,5],[0,1,0,0,-5],[1,0,0,0,5],[1,1,0,0,-5]];perimeter=orthogonalPerimeter;outlineConnect=0;targetShapes=umlLifeline;portConstraint=eastwest;newEdgeStyle={&quot;curved&quot;:0,&quot;rounded&quot;:0};" vertex="1" parent="a7gMy1F5R241Crjmzm0x-90">
          <mxGeometry x="45" y="290" width="10" height="520" as="geometry" />
        </mxCell>
        <mxCell id="a7gMy1F5R241Crjmzm0x-91" value="mix-unipprod" style="shape=umlLifeline;perimeter=lifelinePerimeter;whiteSpace=wrap;html=1;container=1;dropTarget=0;collapsible=0;recursiveResize=0;outlineConnect=0;portConstraint=eastwest;newEdgeStyle={&quot;curved&quot;:0,&quot;rounded&quot;:0};" vertex="1" parent="1">
          <mxGeometry x="370" y="10" width="100" height="820" as="geometry" />
        </mxCell>
        <mxCell id="a7gMy1F5R241Crjmzm0x-103" style="edgeStyle=orthogonalEdgeStyle;rounded=0;orthogonalLoop=1;jettySize=auto;html=1;curved=0;" edge="1" parent="a7gMy1F5R241Crjmzm0x-91" source="a7gMy1F5R241Crjmzm0x-99">
          <mxGeometry relative="1" as="geometry">
            <mxPoint x="200" y="190" as="targetPoint" />
            <Array as="points">
              <mxPoint x="128" y="190" />
              <mxPoint x="128" y="191" />
            </Array>
          </mxGeometry>
        </mxCell>
        <mxCell id="a7gMy1F5R241Crjmzm0x-99" value="" style="html=1;points=[[0,0,0,0,5],[0,1,0,0,-5],[1,0,0,0,5],[1,1,0,0,-5]];perimeter=orthogonalPerimeter;outlineConnect=0;targetShapes=umlLifeline;portConstraint=eastwest;newEdgeStyle={&quot;curved&quot;:0,&quot;rounded&quot;:0};" vertex="1" parent="a7gMy1F5R241Crjmzm0x-91">
          <mxGeometry x="45" y="130" width="10" height="150" as="geometry" />
        </mxCell>
        <mxCell id="a7gMy1F5R241Crjmzm0x-125" value="prompt" style="edgeStyle=orthogonalEdgeStyle;rounded=0;orthogonalLoop=1;jettySize=auto;html=1;curved=0;" edge="1" parent="a7gMy1F5R241Crjmzm0x-91" source="a7gMy1F5R241Crjmzm0x-114">
          <mxGeometry relative="1" as="geometry">
            <mxPoint x="450" y="510" as="targetPoint" />
            <Array as="points">
              <mxPoint x="253" y="510" />
              <mxPoint x="253" y="511" />
            </Array>
          </mxGeometry>
        </mxCell>
        <mxCell id="a7gMy1F5R241Crjmzm0x-114" value="" style="html=1;points=[[0,0,0,0,5],[0,1,0,0,-5],[1,0,0,0,5],[1,1,0,0,-5]];perimeter=orthogonalPerimeter;outlineConnect=0;targetShapes=umlLifeline;portConstraint=eastwest;newEdgeStyle={&quot;curved&quot;:0,&quot;rounded&quot;:0};" vertex="1" parent="a7gMy1F5R241Crjmzm0x-91">
          <mxGeometry x="45" y="290" width="10" height="340" as="geometry" />
        </mxCell>
        <mxCell id="a7gMy1F5R241Crjmzm0x-134" style="edgeStyle=orthogonalEdgeStyle;rounded=0;orthogonalLoop=1;jettySize=auto;html=1;curved=0;" edge="1" parent="a7gMy1F5R241Crjmzm0x-91" source="a7gMy1F5R241Crjmzm0x-129">
          <mxGeometry relative="1" as="geometry">
            <mxPoint x="-140" y="745" as="targetPoint" />
          </mxGeometry>
        </mxCell>
        <mxCell id="a7gMy1F5R241Crjmzm0x-135" value="response" style="edgeLabel;html=1;align=center;verticalAlign=middle;resizable=0;points=[];" vertex="1" connectable="0" parent="a7gMy1F5R241Crjmzm0x-134">
          <mxGeometry x="0.2651" y="-2" relative="1" as="geometry">
            <mxPoint as="offset" />
          </mxGeometry>
        </mxCell>
        <mxCell id="a7gMy1F5R241Crjmzm0x-129" value="" style="html=1;points=[[0,0,0,0,5],[0,1,0,0,-5],[1,0,0,0,5],[1,1,0,0,-5]];perimeter=orthogonalPerimeter;outlineConnect=0;targetShapes=umlLifeline;portConstraint=eastwest;newEdgeStyle={&quot;curved&quot;:0,&quot;rounded&quot;:0};" vertex="1" parent="a7gMy1F5R241Crjmzm0x-91">
          <mxGeometry x="45" y="670" width="10" height="150" as="geometry" />
        </mxCell>
        <mxCell id="a7gMy1F5R241Crjmzm0x-108" value="" style="edgeStyle=orthogonalEdgeStyle;rounded=0;orthogonalLoop=1;jettySize=auto;html=1;curved=0;" edge="1" parent="1" source="a7gMy1F5R241Crjmzm0x-92" target="a7gMy1F5R241Crjmzm0x-107">
          <mxGeometry relative="1" as="geometry">
            <Array as="points">
              <mxPoint x="970" y="520" />
              <mxPoint x="970" y="520" />
            </Array>
          </mxGeometry>
        </mxCell>
        <mxCell id="a7gMy1F5R241Crjmzm0x-92" value="comfyui gruops" style="shape=umlLifeline;perimeter=lifelinePerimeter;whiteSpace=wrap;html=1;container=1;dropTarget=0;collapsible=0;recursiveResize=0;outlineConnect=0;portConstraint=eastwest;newEdgeStyle={&quot;curved&quot;:0,&quot;rounded&quot;:0};" vertex="1" parent="1">
          <mxGeometry x="1010" width="100" height="800" as="geometry" />
        </mxCell>
        <mxCell id="a7gMy1F5R241Crjmzm0x-124" value="" style="html=1;points=[[0,0,0,0,5],[0,1,0,0,-5],[1,0,0,0,5],[1,1,0,0,-5]];perimeter=orthogonalPerimeter;outlineConnect=0;targetShapes=umlLifeline;portConstraint=eastwest;newEdgeStyle={&quot;curved&quot;:0,&quot;rounded&quot;:0};" vertex="1" parent="a7gMy1F5R241Crjmzm0x-92">
          <mxGeometry x="45" y="400" width="10" height="260" as="geometry" />
        </mxCell>
        <mxCell id="a7gMy1F5R241Crjmzm0x-131" value="" style="html=1;points=[[0,0,0,0,5],[0,1,0,0,-5],[1,0,0,0,5],[1,1,0,0,-5]];perimeter=orthogonalPerimeter;outlineConnect=0;targetShapes=umlLifeline;portConstraint=eastwest;newEdgeStyle={&quot;curved&quot;:0,&quot;rounded&quot;:0};" vertex="1" parent="a7gMy1F5R241Crjmzm0x-92">
          <mxGeometry x="45" y="680" width="10" height="80" as="geometry" />
        </mxCell>
        <mxCell id="a7gMy1F5R241Crjmzm0x-93" value="regetdit" style="html=1;verticalAlign=bottom;startArrow=oval;startFill=1;endArrow=block;startSize=8;curved=0;rounded=0;" edge="1" parent="1">
          <mxGeometry width="60" relative="1" as="geometry">
            <mxPoint x="229.5" y="90" as="sourcePoint" />
            <mxPoint x="419.5" y="90" as="targetPoint" />
          </mxGeometry>
        </mxCell>
        <mxCell id="a7gMy1F5R241Crjmzm0x-117" value="" style="edgeStyle=orthogonalEdgeStyle;rounded=0;orthogonalLoop=1;jettySize=auto;html=1;" edge="1" parent="1" source="a7gMy1F5R241Crjmzm0x-104" target="a7gMy1F5R241Crjmzm0x-109">
          <mxGeometry relative="1" as="geometry" />
        </mxCell>
        <mxCell id="a7gMy1F5R241Crjmzm0x-104" value="mysql" style="shape=cylinder3;whiteSpace=wrap;html=1;boundedLbl=1;backgroundOutline=1;size=15;" vertex="1" parent="1">
          <mxGeometry x="570" y="160" width="60" height="80" as="geometry" />
        </mxCell>
        <mxCell id="a7gMy1F5R241Crjmzm0x-126" style="edgeStyle=orthogonalEdgeStyle;rounded=0;orthogonalLoop=1;jettySize=auto;html=1;" edge="1" parent="1" source="a7gMy1F5R241Crjmzm0x-105" target="a7gMy1F5R241Crjmzm0x-124">
          <mxGeometry relative="1" as="geometry">
            <Array as="points">
              <mxPoint x="1040" y="620" />
              <mxPoint x="1040" y="620" />
            </Array>
          </mxGeometry>
        </mxCell>
        <mxCell id="a7gMy1F5R241Crjmzm0x-105" value="queue" style="whiteSpace=wrap;html=1;" vertex="1" parent="1">
          <mxGeometry x="830" y="590" width="120" height="60" as="geometry" />
        </mxCell>
        <mxCell id="a7gMy1F5R241Crjmzm0x-122" style="edgeStyle=orthogonalEdgeStyle;rounded=0;orthogonalLoop=1;jettySize=auto;html=1;entryX=1;entryY=0.5;entryDx=0;entryDy=0;exitX=0.569;exitY=-0.006;exitDx=0;exitDy=0;exitPerimeter=0;" edge="1" parent="1" source="a7gMy1F5R241Crjmzm0x-107" target="a7gMy1F5R241Crjmzm0x-109">
          <mxGeometry relative="1" as="geometry" />
        </mxCell>
        <mxCell id="a7gMy1F5R241Crjmzm0x-107" value="work-flow buss engine" style="whiteSpace=wrap;html=1;" vertex="1" parent="1">
          <mxGeometry x="830" y="490" width="120" height="60" as="geometry" />
        </mxCell>
        <mxCell id="a7gMy1F5R241Crjmzm0x-118" style="edgeStyle=orthogonalEdgeStyle;rounded=0;orthogonalLoop=1;jettySize=auto;html=1;" edge="1" parent="1" source="a7gMy1F5R241Crjmzm0x-109" target="a7gMy1F5R241Crjmzm0x-91">
          <mxGeometry relative="1" as="geometry">
            <Array as="points">
              <mxPoint x="450" y="360" />
              <mxPoint x="450" y="360" />
            </Array>
          </mxGeometry>
        </mxCell>
        <mxCell id="a7gMy1F5R241Crjmzm0x-123" style="edgeStyle=orthogonalEdgeStyle;rounded=0;orthogonalLoop=1;jettySize=auto;html=1;" edge="1" parent="1" source="a7gMy1F5R241Crjmzm0x-109" target="a7gMy1F5R241Crjmzm0x-104">
          <mxGeometry relative="1" as="geometry" />
        </mxCell>
        <mxCell id="a7gMy1F5R241Crjmzm0x-109" value="oss" style="shape=step;perimeter=stepPerimeter;whiteSpace=wrap;html=1;fixedSize=1;" vertex="1" parent="1">
          <mxGeometry x="540" y="320" width="120" height="80" as="geometry" />
        </mxCell>
        <mxCell id="a7gMy1F5R241Crjmzm0x-115" value="uoload img" style="edgeStyle=orthogonalEdgeStyle;rounded=0;orthogonalLoop=1;jettySize=auto;html=1;curved=0;" edge="1" parent="1" source="a7gMy1F5R241Crjmzm0x-113" target="a7gMy1F5R241Crjmzm0x-114">
          <mxGeometry relative="1" as="geometry">
            <Array as="points">
              <mxPoint x="290" y="360" />
              <mxPoint x="290" y="360" />
            </Array>
          </mxGeometry>
        </mxCell>
        <mxCell id="a7gMy1F5R241Crjmzm0x-119" style="edgeStyle=orthogonalEdgeStyle;rounded=0;orthogonalLoop=1;jettySize=auto;html=1;curved=0;" edge="1" parent="1" source="a7gMy1F5R241Crjmzm0x-99" target="a7gMy1F5R241Crjmzm0x-90">
          <mxGeometry relative="1" as="geometry">
            <Array as="points">
              <mxPoint x="370" y="280" />
              <mxPoint x="370" y="280" />
            </Array>
          </mxGeometry>
        </mxCell>
        <mxCell id="a7gMy1F5R241Crjmzm0x-120" style="edgeStyle=orthogonalEdgeStyle;rounded=0;orthogonalLoop=1;jettySize=auto;html=1;curved=0;" edge="1" parent="1" source="a7gMy1F5R241Crjmzm0x-113" target="a7gMy1F5R241Crjmzm0x-91">
          <mxGeometry relative="1" as="geometry">
            <Array as="points">
              <mxPoint x="270" y="470" />
              <mxPoint x="270" y="470" />
            </Array>
          </mxGeometry>
        </mxCell>
        <mxCell id="a7gMy1F5R241Crjmzm0x-121" value="prompt" style="edgeLabel;html=1;align=center;verticalAlign=middle;resizable=0;points=[];" vertex="1" connectable="0" parent="a7gMy1F5R241Crjmzm0x-120">
          <mxGeometry x="-0.0497" y="-3" relative="1" as="geometry">
            <mxPoint as="offset" />
          </mxGeometry>
        </mxCell>
        <mxCell id="a7gMy1F5R241Crjmzm0x-127" style="edgeStyle=orthogonalEdgeStyle;rounded=0;orthogonalLoop=1;jettySize=auto;html=1;curved=0;" edge="1" parent="1" source="a7gMy1F5R241Crjmzm0x-114" target="a7gMy1F5R241Crjmzm0x-105">
          <mxGeometry relative="1" as="geometry">
            <Array as="points">
              <mxPoint x="550" y="620" />
              <mxPoint x="550" y="620" />
            </Array>
          </mxGeometry>
        </mxCell>
        <mxCell id="a7gMy1F5R241Crjmzm0x-128" value="queue" style="edgeLabel;html=1;align=center;verticalAlign=middle;resizable=0;points=[];" vertex="1" connectable="0" parent="a7gMy1F5R241Crjmzm0x-127">
          <mxGeometry x="-0.0436" y="2" relative="1" as="geometry">
            <mxPoint as="offset" />
          </mxGeometry>
        </mxCell>
        <mxCell id="a7gMy1F5R241Crjmzm0x-132" value="status/process/excuted/excution_errror/excution_start" style="edgeStyle=orthogonalEdgeStyle;rounded=0;orthogonalLoop=1;jettySize=auto;html=1;curved=0;" edge="1" parent="1" source="a7gMy1F5R241Crjmzm0x-129" target="a7gMy1F5R241Crjmzm0x-131">
          <mxGeometry relative="1" as="geometry">
            <Array as="points">
              <mxPoint x="580" y="720" />
              <mxPoint x="580" y="720" />
            </Array>
          </mxGeometry>
        </mxCell>
        <mxCell id="a7gMy1F5R241Crjmzm0x-133" style="edgeStyle=orthogonalEdgeStyle;rounded=0;orthogonalLoop=1;jettySize=auto;html=1;curved=0;" edge="1" parent="1" target="a7gMy1F5R241Crjmzm0x-109">
          <mxGeometry relative="1" as="geometry">
            <mxPoint x="1060" y="840" as="sourcePoint" />
            <Array as="points">
              <mxPoint x="1060" y="800" />
              <mxPoint x="600" y="800" />
            </Array>
          </mxGeometry>
        </mxCell>
      </root>
    </mxGraphModel>
  </diagram>
</mxfile>
